<svg height="512" width="512" xmlns="http://www.w3.org/2000/svg"><path d="M491 257.604V235c0-62.771-24.444-121.784-68.83-166.169C377.784 24.444 318.771 0 256 0S134.216 24.444 89.83 68.83C45.444 113.215 21 172.229 21 235v22.605C8.949 265.687 1 279.431 1 295v60c0 24.813 20.187 45 45 45h17.58c4.674 13.177 15.318 23.548 28.668 27.843C98.258 458.662 125.448 482 158 482h25.58c6.192 17.459 22.865 30 42.42 30 24.813 0 45-20.187 45-45s-20.187-45-45-45c-19.555 0-36.228 12.541-42.42 30H158c-16.315 0-30.189-10.62-35.095-25.307C139.363 419.996 151 403.836 151 385V265c0-24.813-20.187-45-45-45-19.555 0-36.228 12.541-42.42 30H51v-15c0-113.037 91.963-205 205-205s205 91.962 205 205v15h-12.58c-6.192-17.459-22.865-30-42.42-30-24.813 0-45 20.187-45 45v120c0 24.813 20.187 45 45 45 19.555 0 36.228-12.541 42.42-30H466c24.813 0 45-20.187 45-45v-60c0-15.569-7.949-29.313-20-37.396zM226 452c8.271 0 15 6.729 15 15s-6.729 15-15 15-15-6.729-15-15 6.729-15 15-15zM31 355v-60c0-8.271 6.729-15 15-15h15v90H46c-8.271 0-15-6.729-15-15zm60-90c0-8.271 6.729-15 15-15s15 6.729 15 15v120c0 8.271-6.729 15-15 15s-15-6.729-15-15zm330 120c0 8.271-6.729 15-15 15s-15-6.729-15-15V265c0-8.271 6.729-15 15-15s15 6.729 15 15zm60-30c0 8.271-6.729 15-15 15h-15v-90h15c8.271 0 15 6.729 15 15z"/><path d="M343.678 164.583h-.244c.165-28.704.238-58.228-.119-62.512-.848-10.171-7.005-18.481-15.686-21.17-8.639-2.674-17.778.618-24.453 8.808-6.901 8.468-38.475 65.385-47.987 82.628a15.002 15.002 0 0013.134 22.246h44.907c-.054 7.174-.108 14.047-.162 20.288-.072 8.284 6.586 15.058 14.87 15.129h.132c8.223 0 14.926-6.631 14.996-14.871.043-4.938.103-12.135.167-20.546h.445c8.284 0 15-6.716 15-15s-6.716-15-15-15zm-30.251 0h-19.605c7.139-12.749 14.076-24.973 19.747-34.764a9616.019 9616.019 0 01-.142 34.764z"/><path d="M210.956 146.619c-18.622 26.607-29.734 41.156-35.703 48.973-7.496 9.814-11.258 14.74-8.731 22.953 1.495 4.863 5.172 8.591 10.087 10.23 1.977.659 3.759 1.253 26.945 1.253 9.004 0 21.237-.09 37.963-.3 8.283-.104 14.914-6.904 14.811-15.188-.104-8.22-6.798-14.812-14.995-14.812l-.192.001c-10.642.134-21.887.227-31.618.259 6.366-8.563 14.878-20.258 26.014-36.167 7.644-10.923 12.635-21.273 14.835-30.764.304-1.995.847-4.815.97-7.941 0-24.877-20.239-45.116-45.117-45.116-21.511 0-40.129 15.303-44.27 36.388-1.597 8.129 3.699 16.013 11.828 17.609 8.129 1.597 16.013-3.699 17.609-11.828 1.385-7.051 7.623-12.169 14.832-12.169 8.069 0 14.683 6.354 15.097 14.322l-.334 2.616c-1.424 5.536-4.881 12.322-10.031 19.681z"/></svg>